<?xml version="1.0" encoding="utf-8"?>
<!-- Generator: Adobe Illustrator 15.0.0, SVG Export Plug-In . SVG Version: 6.00 Build 0)  -->
<!DOCTYPE svg PUBLIC "-//W3C//DTD SVG 1.1//EN" "http://www.w3.org/Graphics/SVG/1.1/DTD/svg11.dtd">
<svg version="1.1" id="Layer_1" xmlns="http://www.w3.org/2000/svg" xmlns:xlink="http://www.w3.org/1999/xlink" x="0px" y="0px"
	 width="294.953px" height="269.891px" viewBox="0 0 294.953 269.891" enable-background="new 0 0 294.953 269.891"
	 xml:space="preserve">
<polygon fill="#F37921" points="22.549,8.227 32.532,27.905 32.071,8.227 45.171,8.227 45.171,51.507 32.532,51.507 22.549,31.83 
	23.011,51.507 9.911,51.507 9.911,8.227 "/>
<polygon fill="#F37921" points="76.419,35.061 60.838,35.061 60.838,39.965 78.036,39.965 78.036,51.507 47.451,51.507 
	47.451,8.227 78.036,8.227 78.036,19.769 60.838,19.769 60.838,23.519 76.419,23.519 "/>
<polygon fill="#F37921" points="97.61,8.227 110.421,8.227 114.633,32.752 116.48,8.227 129.926,8.227 123.174,51.507 
	108.055,51.507 104.015,26.981 99.976,51.507 84.857,51.507 78.105,8.227 91.551,8.227 93.397,32.752 "/>
<polygon fill="#F37921" points="259.663,24.961 259.663,8.227 273.05,8.227 273.05,24.961 286.611,51.507 271.839,51.507 
	266.355,37.6 260.874,51.507 246.102,51.507 "/>
<path fill="#F37921" d="M213.322,29.867c0-14.139,2.886-22.679,17.89-22.679s17.89,8.54,17.89,22.679s-2.886,22.679-17.89,22.679
	S213.322,44.006,213.322,29.867 M231.212,40.889c3.462,0,4.271-1.789,4.271-11.022c0-9.234-0.809-11.022-4.271-11.022
	c-3.463,0-4.271,1.788-4.271,11.022C226.939,39.1,227.749,40.889,231.212,40.889"/>
<path fill="#F37921" d="M176.169,8.226h15.119l4.905,15.004h2.598V8.226h13.1v43.28h-17.254c-12.58,0-16.39-5.424-16.39-14.138
	c0-5.251,1.385-9.291,5.251-11.715L176.169,8.226z M195.154,40.312h3.637v-6.694h-3.637c-2.02,0-2.827,1.097-2.827,3.347
	S193.137,40.312,195.154,40.312"/>
<polygon fill="#F37921" points="162.646,25.539 162.646,8.227 176.036,8.227 176.036,51.507 162.646,51.507 162.646,36.388 
	154.338,51.507 138.469,51.507 151.337,32.464 137.372,8.227 154.05,8.227 "/>
<polygon fill="#A5A5A5" points="42.608,136.854 79.394,136.854 79.394,165.041 9.911,165.041 9.911,59.336 42.608,59.336 "/>
<rect x="82.11" y="59.337" fill="#A5A5A5" width="32.697" height="105.705"/>
<polygon fill="#A5A5A5" points="174.762,59.337 210.139,59.337 182.652,165.042 144.038,165.042 116.555,59.337 151.93,59.337 
	163.346,124.31 "/>
<polygon fill="#A5A5A5" points="215.859,99.505 253.913,99.505 253.913,87.525 211.915,87.525 211.915,59.338 286.611,59.338 
	286.611,165.042 211.915,165.042 211.915,136.854 253.913,136.854 253.913,127.692 215.859,127.692 "/>
<path fill="#A5A5A5" d="M4.027,263.583l19.473-89.6h39.184l19.474,89.6H53.845l-2.51-14.216H34.849l-2.509,14.216H4.027z
	 M43.092,198.474l-4.659,30.583h9.318L43.092,198.474z"/>
<path fill="#A5A5A5" d="M74.575,173.983h31.301l10.154,31.062h5.376v-31.062h27.12v89.601h-35.72
	c-26.044,0-33.928-11.229-33.928-29.27c0-10.872,2.866-19.234,10.87-24.252L74.575,173.983z M113.879,240.406h7.526v-13.857h-7.526
	c-4.182,0-5.854,2.271-5.854,6.93S109.697,240.406,113.879,240.406"/>
<polygon fill="#A5A5A5" points="199.083,197.876 199.083,263.583 171.366,263.583 171.366,197.876 150.938,197.876 150.938,173.983 
	219.512,173.983 219.512,197.876 "/>
<path fill="#A5A5A5" d="M288.996,235.508c0,23.178-14.575,30.226-37.035,30.226c-13.619,0-23.771-2.746-30.82-7.048l0.596-24.014
	c6.213,3.464,16.966,6.69,28.076,6.69c8.242,0,12.064-1.554,12.064-5.376c0-4.182-4.42-5.257-9.559-5.854
	c-21.504-2.27-31.18-6.57-31.18-28.193c0-18.994,11.588-30.105,37.033-30.105c12.902,0,22.46,2.628,27.359,4.898l-0.598,24.251
	c-6.572-3.226-16.966-4.778-24.611-4.778c-8.242,0-12.065,1.792-12.065,5.496c0,3.941,4.302,4.54,9.558,5.137
	C279.318,209.106,288.996,214.125,288.996,235.508"/>
</svg>
